<?xml version="1.0" encoding="utf-8"?>
<svg viewBox="0 0 3909.106 528" style="enable-background:new 0 0 2435 528;" xmlns="http://www.w3.org/2000/svg" xmlns:xlink="http://www.w3.org/1999/xlink" xmlns:bx="https://boxy-svg.com">
  <defs>
    <linearGradient id="gradient-2-0" gradientUnits="userSpaceOnUse" x1="3503.974" y1="179.092" x2="3503.974" y2="355.122" gradientTransform="matrix(1, 0, 0, 1, -69.929461, -2.411444)" xlink:href="#gradient-2"/>
    <linearGradient id="gradient-2" bx:pinned="true">
      <stop offset="0.0034" style="stop-color: rgb(228, 72, 87);"/>
      <stop offset="0.4689" style="stop-color: rgb(199, 17, 225);"/>
      <stop offset="1" style="stop-color: rgb(127, 82, 255);"/>
    </linearGradient>
    <style type="text/css">
	.st0{fill:url(#SVGID_1_);}
	.st1{fill:#FFFFFF;}
</style>
  </defs>
  <g id="Logotypes_1_" style="" transform="matrix(1.8700699806213381, -0.00006300000677583739, 0, 1, -0.004141999997727908, -1.9459330423457004)">
    <g>
      <g id="Logotypes">
        <g transform="matrix(2.306056, 0, 0, 1, 202.927994, 2.395493)" style="transform-origin: 155.371px 346.805px;">
          <linearGradient id="SVGID_1_" gradientUnits="userSpaceOnUse" x1="499.3847" y1="-619.5934" x2="-0.3701" y2="-1119.3483" gradientTransform="matrix(0.9998, 0, 0, -0.9998, 0.4448, -606.334496)">
            <stop offset="0.0034" style="stop-color:#E44857"/>
            <stop offset="0.4689" style="stop-color:#C711E1"/>
            <stop offset="1" style="stop-color:#7F52FF"/>
          </linearGradient>
          <polygon class="st0" points="736.133 512.713 0 512.714 0 13.214 735.84 13.214 677.046 262.849"/>
        </g>
      </g>
    </g>
  </g>
  <path d="M 3230.791 318.952 L 3230.791 309.508 L 3282.89 229.077 L 3235.513 229.077 L 3235.513 215.855 L 3302.408 215.855 L 3302.408 225.299 L 3250.308 305.73 L 3302.88 305.73 L 3302.88 318.952 Z" style="fill: url('#gradient-2-0'); paint-order: stroke; stroke-miterlimit: 1; stroke-width: 6px; vector-effect: non-scaling-stroke;"/>
  <path d="M 3347.411 320.841 Q 3336.55 320.841 3327.263 316.827 Q 3317.977 312.813 3310.736 305.573 L 3319.393 295.342 Q 3324.902 300.851 3332.379 303.999 Q 3339.855 307.147 3347.725 307.147 Q 3357.169 307.147 3362.285 302.976 Q 3367.4 298.805 3367.4 292.037 Q 3367.4 287.315 3365.276 284.403 Q 3363.151 281.491 3359.373 279.523 Q 3355.595 277.556 3350.873 275.51 L 3336.393 269.214 Q 3331.356 267.01 3326.555 263.547 Q 3321.754 260.084 3318.606 254.89 Q 3315.458 249.696 3315.458 242.141 Q 3315.458 234.113 3319.787 227.739 Q 3324.115 221.364 3331.671 217.665 Q 3339.226 213.966 3349.142 213.966 Q 3358.429 213.966 3366.456 217.429 Q 3374.483 220.892 3380.15 226.558 L 3371.808 236.789 Q 3366.928 232.539 3361.183 230.1 Q 3355.438 227.66 3349.142 227.66 Q 3341.115 227.66 3336.235 231.28 Q 3331.356 234.9 3331.356 241.196 Q 3331.356 245.761 3333.796 248.594 Q 3336.235 251.427 3340.17 253.316 Q 3344.105 255.205 3348.198 257.094 L 3362.521 263.232 Q 3368.66 265.751 3373.382 269.292 Q 3378.104 272.834 3380.779 278.028 Q 3383.455 283.222 3383.455 290.777 Q 3383.455 299.12 3379.205 305.966 Q 3374.956 312.813 3366.85 316.827 Q 3358.743 320.841 3347.411 320.841 Z" style="fill: url('#gradient-2-0'); paint-order: stroke; stroke-miterlimit: 1; stroke-width: 6px; vector-effect: non-scaling-stroke;"/>
  <path d="M 3440.439 320.841 Q 3432.097 320.841 3425.093 318.48 Q 3418.088 316.119 3413.052 310.767 Q 3408.015 305.416 3405.182 296.759 Q 3402.348 288.102 3402.348 275.824 L 3402.348 215.855 L 3418.088 215.855 L 3418.088 276.611 Q 3418.088 288.259 3421 294.87 Q 3423.912 301.481 3429.028 304.235 Q 3434.143 306.99 3440.439 306.99 Q 3447.05 306.99 3452.244 304.235 Q 3457.438 301.481 3460.429 294.87 Q 3463.42 288.259 3463.42 276.611 L 3463.42 215.855 L 3478.53 215.855 L 3478.53 275.824 Q 3478.53 288.102 3475.775 296.759 Q 3473.021 305.416 3467.905 310.767 Q 3462.79 316.119 3455.864 318.48 Q 3448.939 320.841 3440.439 320.841 Z" style="fill: url('#gradient-2-0'); paint-order: stroke; stroke-miterlimit: 1; stroke-width: 6px; vector-effect: non-scaling-stroke;"/>
  <path d="M 3505.123 318.952 L 3505.123 215.855 L 3537.075 215.855 Q 3547.463 215.855 3555.648 218.295 Q 3563.833 220.734 3568.476 226.322 Q 3573.119 231.91 3573.119 241.196 Q 3573.119 249.066 3569.342 255.126 Q 3565.564 261.186 3558.481 263.547 L 3558.481 264.177 Q 3567.768 265.908 3573.277 271.889 Q 3578.786 277.871 3578.786 288.102 Q 3578.786 298.647 3573.749 305.416 Q 3568.712 312.184 3559.819 315.568 Q 3550.926 318.952 3539.436 318.952 Z M 3520.863 258.983 L 3535.029 258.983 Q 3546.991 258.983 3552.343 254.733 Q 3557.694 250.483 3557.694 243.243 Q 3557.694 235.058 3552.106 231.595 Q 3546.519 228.132 3535.501 228.132 L 3520.863 228.132 Z M 3520.863 306.517 L 3537.547 306.517 Q 3549.982 306.517 3556.671 302.031 Q 3563.361 297.546 3563.361 287.944 Q 3563.361 279.13 3556.75 275.037 Q 3550.139 270.945 3537.547 270.945 L 3520.863 270.945 Z" style="fill: url('#gradient-2-0'); paint-order: stroke; stroke-miterlimit: 1; stroke-width: 6px; vector-effect: non-scaling-stroke;"/>
  <path d="M 3440.56 399.728 L 3432.705 374.06 L 3437.2 374.06 L 3441.285 388.876 L 3442.808 394.386 Q 3442.905 393.976 3444.137 389.093 L 3448.222 374.06 L 3452.693 374.06 L 3456.536 388.948 L 3457.817 393.855 L 3459.292 388.9 L 3463.691 374.06 L 3467.92 374.06 L 3459.896 399.728 L 3455.376 399.728 L 3451.292 384.356 L 3450.301 379.981 L 3445.104 399.728 Z M 3469.943 386.894 Q 3469.943 379.764 3473.907 376.332 Q 3477.218 373.479 3481.98 373.479 Q 3487.273 373.479 3490.633 376.948 Q 3493.992 380.416 3493.992 386.531 Q 3493.992 391.486 3492.506 394.326 Q 3491.019 397.166 3488.179 398.737 Q 3485.339 400.308 3481.98 400.308 Q 3476.59 400.308 3473.266 396.852 Q 3469.943 393.396 3469.943 386.894 Z M 3474.415 386.894 Q 3474.415 391.824 3476.566 394.278 Q 3478.717 396.731 3481.98 396.731 Q 3485.219 396.731 3487.37 394.266 Q 3489.521 391.8 3489.521 386.749 Q 3489.521 381.987 3487.358 379.534 Q 3485.194 377.081 3481.98 377.081 Q 3478.717 377.081 3476.566 379.522 Q 3474.415 381.963 3474.415 386.894 Z M 3499.035 399.728 L 3499.035 374.06 L 3502.95 374.06 L 3502.95 377.951 Q 3504.449 375.22 3505.718 374.35 Q 3506.987 373.479 3508.51 373.479 Q 3510.709 373.479 3512.981 374.881 L 3511.482 378.918 Q 3509.887 377.975 3508.292 377.975 Q 3506.866 377.975 3505.73 378.833 Q 3504.594 379.691 3504.111 381.214 Q 3503.385 383.534 3503.385 386.29 L 3503.385 399.728 Z M 3515.587 399.728 L 3515.587 364.295 L 3519.937 364.295 L 3519.937 384.501 L 3530.234 374.06 L 3535.865 374.06 L 3526.052 383.583 L 3536.856 399.728 L 3531.49 399.728 L 3523.007 386.604 L 3519.937 389.552 L 3519.937 399.728 Z M 3558.8 399.728 L 3550.945 374.06 L 3555.44 374.06 L 3559.525 388.876 L 3561.048 394.386 Q 3561.144 393.976 3562.377 389.093 L 3566.462 374.06 L 3570.933 374.06 L 3574.776 388.948 L 3576.057 393.855 L 3577.531 388.9 L 3581.93 374.06 L 3586.16 374.06 L 3578.136 399.728 L 3573.616 399.728 L 3569.531 384.356 L 3568.54 379.981 L 3563.344 399.728 Z M 3589.837 369.298 L 3589.837 364.295 L 3594.187 364.295 L 3594.187 369.298 Z M 3589.837 399.728 L 3589.837 374.06 L 3594.187 374.06 L 3594.187 399.728 Z M 3610.301 395.837 L 3610.929 399.68 Q 3609.092 400.066 3607.642 400.066 Q 3605.273 400.066 3603.968 399.317 Q 3602.663 398.568 3602.131 397.347 Q 3601.6 396.127 3601.6 392.211 L 3601.6 377.443 L 3598.409 377.443 L 3598.409 374.06 L 3601.6 374.06 L 3601.6 367.703 L 3605.926 365.093 L 3605.926 374.06 L 3610.301 374.06 L 3610.301 377.443 L 3605.926 377.443 L 3605.926 392.453 Q 3605.926 394.314 3606.156 394.846 Q 3606.385 395.377 3606.905 395.692 Q 3607.425 396.006 3608.391 396.006 Q 3609.116 396.006 3610.301 395.837 Z M 3614.552 399.728 L 3614.552 364.295 L 3618.903 364.295 L 3618.903 377.008 Q 3621.948 373.479 3626.589 373.479 Q 3629.441 373.479 3631.543 374.603 Q 3633.646 375.727 3634.553 377.709 Q 3635.459 379.691 3635.459 383.462 L 3635.459 399.728 L 3631.108 399.728 L 3631.108 383.462 Q 3631.108 380.199 3629.694 378.712 Q 3628.281 377.226 3625.694 377.226 Q 3623.761 377.226 3622.057 378.229 Q 3620.353 379.232 3619.628 380.948 Q 3618.903 382.664 3618.903 385.685 L 3618.903 399.728 Z M 3656.196 399.728 L 3656.196 364.295 L 3660.885 364.295 L 3660.885 381.866 L 3678.48 364.295 L 3684.837 364.295 L 3669.973 378.652 L 3685.49 399.728 L 3679.302 399.728 L 3666.686 381.794 L 3660.885 387.45 L 3660.885 399.728 Z M 3687.224 386.894 Q 3687.224 379.764 3691.188 376.332 Q 3694.5 373.479 3699.261 373.479 Q 3704.554 373.479 3707.914 376.948 Q 3711.273 380.416 3711.273 386.531 Q 3711.273 391.486 3709.787 394.326 Q 3708.301 397.166 3705.461 398.737 Q 3702.621 400.308 3699.261 400.308 Q 3693.871 400.308 3690.548 396.852 Q 3687.224 393.396 3687.224 386.894 Z M 3691.696 386.894 Q 3691.696 391.824 3693.847 394.278 Q 3695.998 396.731 3699.261 396.731 Q 3702.5 396.731 3704.651 394.266 Q 3706.802 391.8 3706.802 386.749 Q 3706.802 381.987 3704.639 379.534 Q 3702.476 377.081 3699.261 377.081 Q 3695.998 377.081 3693.847 379.522 Q 3691.696 381.963 3691.696 386.894 Z M 3725.864 395.837 L 3726.492 399.68 Q 3724.655 400.066 3723.205 400.066 Q 3720.836 400.066 3719.531 399.317 Q 3718.226 398.568 3717.694 397.347 Q 3717.162 396.127 3717.162 392.211 L 3717.162 377.443 L 3713.972 377.443 L 3713.972 374.06 L 3717.162 374.06 L 3717.162 367.703 L 3721.489 365.093 L 3721.489 374.06 L 3725.864 374.06 L 3725.864 377.443 L 3721.489 377.443 L 3721.489 392.453 Q 3721.489 394.314 3721.718 394.846 Q 3721.948 395.377 3722.468 395.692 Q 3722.987 396.006 3723.954 396.006 Q 3724.679 396.006 3725.864 395.837 Z M 3730.018 399.728 L 3730.018 364.295 L 3734.369 364.295 L 3734.369 399.728 Z M 3741.139 369.298 L 3741.139 364.295 L 3745.49 364.295 L 3745.49 369.298 Z M 3741.139 399.728 L 3741.139 374.06 L 3745.49 374.06 L 3745.49 399.728 Z M 3752.115 399.728 L 3752.115 374.06 L 3756.03 374.06 L 3756.03 377.709 Q 3758.858 373.479 3764.2 373.479 Q 3766.52 373.479 3768.466 374.313 Q 3770.411 375.147 3771.378 376.501 Q 3772.345 377.854 3772.732 379.715 Q 3772.973 380.924 3772.973 383.945 L 3772.973 399.728 L 3768.623 399.728 L 3768.623 384.114 Q 3768.623 381.456 3768.115 380.138 Q 3767.608 378.821 3766.315 378.036 Q 3765.021 377.25 3763.281 377.25 Q 3760.502 377.25 3758.484 379.014 Q 3756.465 380.779 3756.465 385.709 L 3756.465 399.728 Z" style="fill: rgb(112, 99, 99);"/>
</svg>